@startuml ejr1

class Matriz {
  - elementos: List[List[int]]
  + __init__(elementos: List[List[int]])
}

class Transpuesta {
  + __init__(elementos: List[List[int]])
  + transpuesta(): Matriz
}

class Imprimir {
  + __init__(elementos: List[List[int]])
  + imprimir(): void
}

class Lanzador {
  - elementos: List[List[int]]
  - can_filas: int
  - can_columnas: int
  + __init__()
  + crear_matriz(): void
  + lanzar(): void
}

class Main {
  - lanzador: Lanzador
  + __init__()
}

Matriz --> Transpuesta
Matriz --> Imprimir
Lanzador --> Matriz
Lanzador --> Imprimir
Lanzador --> Transpuesta
Main --> Lanzador

@enduml
